<?xml version="1.0" encoding="utf-8"?>
<!-- Generator: Adobe Illustrator 25.3.1, SVG Export Plug-In . SVG Version: 6.00 Build 0)  -->
<svg version="1.1" id="图层_1" xmlns="http://www.w3.org/2000/svg" xmlns:xlink="http://www.w3.org/1999/xlink" x="0px" y="0px"
	 viewBox="0 0 200 200" style="enable-background:new 0 0 200 200;" xml:space="preserve">
<style type="text/css">
	.st0{fill:#F6648C;}
	.st1{fill:#F7F8F8;}
</style>
<path class="st0" d="M150,200H50c-27.5,0-50-22.5-50-50V50C0,22.5,22.5,0,50,0h100c27.5,0,50,22.5,50,50v100
	C200,177.5,177.5,200,150,200z"/>
<path class="st1" d="M102.1,165.2c-36.4,0-66.1-29.6-66.1-66.1S65.6,33,102.1,33s66.1,29.6,66.1,66.1c0,9.7-2.1,19.1-6.1,27.9
	c-1.2,2.5-4.1,3.6-6.6,2.4c-2.5-1.2-3.6-4.1-2.4-6.6c3.5-7.4,5.2-15.4,5.2-23.6c0-30.9-25.2-56.1-56.1-56.1S46,68.3,46,99.2
	s25.2,56.1,56.1,56.1c11.9,0,23.2-3.7,32.9-10.6c2.2-1.6,5.4-1.1,7,1.1l0,0c1.6,2.2,1.1,5.4-1.1,7l0,0
	C129.5,160.9,116.1,165.2,102.1,165.2L102.1,165.2z"/>
<path class="st1" d="M102.1,135.1c-2.8,0-5-2.2-5-5V87.2c0-2.8,2.2-5,5-5s5,2.2,5,5v42.9C107.1,132.9,104.8,135.1,102.1,135.1z
	 M102.1,75.6c-2.8,0-5-2.2-5-5v-2.9c0-2.8,2.2-5,5-5s5,2.2,5,5v2.9C107.1,73.4,104.8,75.6,102.1,75.6z"/>
</svg>
