<?xml version="1.0" encoding="utf-8"?>
<!-- Generator: Adobe Illustrator 25.3.1, SVG Export Plug-In . SVG Version: 6.00 Build 0)  -->
<svg version="1.1" id="图层_1" xmlns="http://www.w3.org/2000/svg" xmlns:xlink="http://www.w3.org/1999/xlink" x="0px" y="0px"
	 viewBox="0 0 200 200" style="enable-background:new 0 0 200 200;" xml:space="preserve">
<style type="text/css">
	.st0{fill:#F5BF5A;}
	.st1{fill:#FFFFFF;}
</style>
<path class="st0" d="M150.6,200h-100c-27.5,0-50-22.5-50-50V50c0-27.5,22.5-50,50-50h100c27.5,0,50,22.5,50,50v100
	C200.6,177.5,178.1,200,150.6,200z"/>
<path class="st1" d="M144.6,54.2H56.5c-8.4,0-15.3,6.9-15.3,15.3v7.2H160v-7.2C160,61,153.1,54.2,144.6,54.2L144.6,54.2z
	 M41.1,130.9c0,8.4,6.9,15.3,15.3,15.3h88.2c8.4,0,15.3-6.9,15.3-15.3V85.1H41.1V130.9z M129.2,117.6h20l-7.3,14.3h-20L129.2,117.6z
	 M114.8,117.6h6.8l-7.3,14.3h-6.8L114.8,117.6z M99.6,117.6h6.8l-7.3,14.3h-6.8C92.3,132,99.6,117.6,99.6,117.6z"/>
</svg>
