<?xml version="1.0" encoding="utf-8"?>
<!-- Generator: Adobe Illustrator 25.3.1, SVG Export Plug-In . SVG Version: 6.00 Build 0)  -->
<svg version="1.1" id="图层_1" xmlns="http://www.w3.org/2000/svg" xmlns:xlink="http://www.w3.org/1999/xlink" x="0px" y="0px"
	 viewBox="0 0 200 200" style="enable-background:new 0 0 200 200;" xml:space="preserve">
<style type="text/css">
	.st0{fill:#277EFC;}
	.st1{fill:#FFFFFF;}
</style>
<path class="st0" d="M150,200H50c-27.5,0-50-22.5-50-50V50C0,22.5,22.5,0,50,0h100c27.5,0,50,22.5,50,50v100
	C200,177.5,177.5,200,150,200z"/>
<path class="st1" d="M44.8,53.6v44.2c0,5.3,1.1,10.6,3.3,15.5l5.4,12.1c1.9,4.2,6.8,6.1,11,4.3c0.9-0.4,1.7-0.9,2.3-1.6l16-15
	c4.9-4.6,11.4-7.2,18.2-7.2h26.5c4.6,0,8.3-3.7,8.3-8.3c0,0,0,0,0,0V53.6c0-4.6-3.7-8.3-8.3-8.3H53.1C48.5,45.2,44.8,49,44.8,53.6
	C44.8,53.6,44.8,53.6,44.8,53.6L44.8,53.6z"/>
<path class="st1" d="M148.8,87.6h-0.4c-3.5,0-6.4,2.8-6.4,6.4c0,0,0,0,0,0v11.8c0,4.3-3.5,7.7-7.7,7.7l0,0h-25
	c-6.3,0-12.3,2.4-16.9,6.7l-8.9,8.3c0,0.1-0.1,0.3-0.1,0.4c0,3.6,3,6.6,6.6,6.6H111c5.3,0,10.5,2,14.4,5.7l12.6,11.9
	c2.7,2.5,6.8,2.4,9.3-0.3c0.5-0.5,0.9-1.2,1.2-1.9l4.2-9.6c1.7-3.9,2.6-8,2.6-12.2V94.2C155.4,90.6,152.4,87.6,148.8,87.6
	L148.8,87.6z"/>
</svg>
