<?xml version="1.0" encoding="utf-8"?>
<!-- Generator: Adobe Illustrator 25.3.1, SVG Export Plug-In . SVG Version: 6.00 Build 0)  -->
<svg version="1.1" id="图层_1" xmlns="http://www.w3.org/2000/svg" xmlns:xlink="http://www.w3.org/1999/xlink" x="0px" y="0px"
	 viewBox="0 0 200 200" style="enable-background:new 0 0 200 200;" xml:space="preserve">
<style type="text/css">
	.st0{fill:#03BBFF;}
	.st1{fill:#FFFFFF;}
	.st2{opacity:0.5;fill:#03BBFF;enable-background:new    ;}
</style>
<path class="st0" d="M149.9,200H50c-27.5,0-50-22.5-50-50V50.1c0-27.5,22.5-50,50-50h99.9c27.5,0,50,22.5,50,50V150
	C199.9,177.5,177.4,200,149.9,200z"/>
<path class="st1" d="M154.9,102.5l-7,27.5c-3.8,14.8-7.9,25.1-23.2,25.1H78.7c-7.4,0-10.8-6.1-10.8-13.5l0.3-38
	c0.1-7.1,3.1-13,10.2-13.3l0.9-0.3c2.4-0.1,4.6-1.4,5.8-3.5l21.3-36.9c1.7-3,5-4.9,8.5-4.9c5.7,0,10.2,4.9,9.7,10.5l-2.2,26.9
	c-0.3,4.1,2.9,7.7,7.1,7.7h15.5C151.7,90,156.5,96.2,154.9,102.5z M138.7,117.2c-1.7,0-3.1,1.4-3.1,3.1c0,4.1-3.2,12.8-5.7,16.8
	c-1.5,2.4-5.4,3.8-6.8,4.1c-1.7,0.4-2.7,2.1-2.3,3.8c0.4,1.4,1.6,2.4,3,2.4c0.2,0,0.5,0,0.7-0.1c0.8-0.2,7.4-1.9,10.6-6.9
	c2.7-4.3,6.7-14.3,6.7-20.1C141.8,118.6,140.4,117.2,138.7,117.2L138.7,117.2z M52.5,153.3c-4.3,0-7.8-3.5-7.8-7.8v-40.7
	c0-4.3,3.5-7.8,7.8-7.8c4.3,0,7.8,3.5,7.8,7.8v40.7C60.4,149.8,56.9,153.3,52.5,153.3z"/>
<path class="st2" d="M124.5,58.4l0.2-3c0.4-5.7-4-10.5-9.7-10.5c-3.5,0-6.7,1.9-8.5,4.9l-1.2,2.1c3.5,3.1,8.6,5.4,14.6,6.2
	C121.5,58.3,123,58.4,124.5,58.4z M52.5,153.3c4.3,0,7.8-3.5,7.8-7.8v-4.8c-5.4,0.5-10.6,1.5-15.7,2.9v1.9
	C44.7,149.8,48.2,153.3,52.5,153.3z M68.5,140.3H68l0,1.4c-0.1,7.4,3.4,13.5,10.8,13.5h38.4C103.2,145.8,86.5,140.3,68.5,140.3z"/>
</svg>
