<?xml version="1.0" encoding="utf-8"?>
<!-- Generator: Adobe Illustrator 25.3.1, SVG Export Plug-In . SVG Version: 6.00 Build 0)  -->
<svg version="1.1" id="图层_1" xmlns="http://www.w3.org/2000/svg" xmlns:xlink="http://www.w3.org/1999/xlink" x="0px" y="0px"
	 viewBox="0 0 200 200" style="enable-background:new 0 0 200 200;" xml:space="preserve">
<style type="text/css">
	.st0{fill:#AA64F4;}
	.st1{fill:#FFFFFF;}
</style>
<path class="st0" d="M150,200H50c-27.5,0-50-22.5-50-50V50C0,22.5,22.5,0,50,0h100c27.5,0,50,22.5,50,50v100
	C200,177.5,177.5,200,150,200z"/>
<path class="st1" d="M129.6,67.5c0.4-0.3,0.4-0.9,0.1-1.3c0,0,0,0-0.1-0.1h0l-6-5.5c-0.4-0.4-1.1-0.4-1.5,0l-5,4.7l7.5,6.9
	C124.5,72.2,129.6,67.5,129.6,67.5z M114.1,81.8l-7.5-6.9l-37.2,34.4l-3.2,8.9l11.2-2.5L114.1,81.8z M49.7,121.1l6.1-17.1
	c0.5-1.4,1.4-2.7,2.5-3.7l53.4-49.4c6.4-5.7,16-5.7,22.3,0l6,5.5c5.7,5.1,6.2,13.8,1.1,19.6c-0.3,0.4-0.6,0.7-1,1l-0.1,0.1l-0.1,0.1
	l-52.9,49c-1.4,1.2-3,2.1-4.8,2.5l-20.5,4.6c-0.8,0.2-1.6,0.3-2.4,0.3c-1.9,0-3.7-0.5-5.3-1.4c-2.3-1.2-3.9-3.3-4.6-5.8
	C49,124.6,49.1,122.8,49.7,121.1L49.7,121.1z M146.9,153.3c-0.3,0-0.7,0-1,0H54c-1.9,0-3.8-0.7-5.2-2c-2.7-2.4-2.9-6.5-0.5-9.1
	c0.2-0.2,0.3-0.3,0.5-0.5c1.4-1.3,3.3-2,5.2-2h91.9c3.8-0.1,7,2.8,7.1,6.6C153.1,149.8,150.5,152.9,146.9,153.3z"/>
</svg>
