<?xml version="1.0" encoding="utf-8"?>
<!-- Generator: Adobe Illustrator 25.3.1, SVG Export Plug-In . SVG Version: 6.00 Build 0)  -->
<svg version="1.1" id="图层_1" xmlns="http://www.w3.org/2000/svg" xmlns:xlink="http://www.w3.org/1999/xlink" x="0px" y="0px"
	 viewBox="0 0 200 200" style="enable-background:new 0 0 200 200;" xml:space="preserve">
<style type="text/css">
	.st0{fill:#00E560;}
	.st1{fill:#FFFFFF;}
</style>
<path class="st0" d="M150,200H50c-27.5,0-50-22.5-50-50V50C0,22.5,22.5,0,50,0h100c27.5,0,50,22.5,50,50v100
	C200,177.5,177.5,200,150,200z"/>
<path class="st1" d="M65.6,47l14.7,20.7c1.5,2.1,1.6,4.8,0.3,7l-5.4,9.3c-1.2,2.2-1.2,4.8,0.2,6.9c4.2,6.2,14.1,19.4,27.8,27.7
	c2.6,1.5,5.7,1.8,8.4,0.5l9.8-4.5c1.5-0.7,3.2-0.6,4.5,0.3l21.8,13.5c2.3,1.4,3.2,4.3,2.2,6.8c-2.1,5-6.2,12.6-12.6,13.9
	c-9.7,2-31.5-3-58.5-30.2s-35-49.2-32.2-63.2c0,0,4.4-7.6,13.6-10.6C62.1,44.6,64.4,45.3,65.6,47L65.6,47z"/>
</svg>
