<?xml version="1.0" standalone="no"?><!DOCTYPE svg PUBLIC "-//W3C//DTD SVG 1.1//EN" "http://www.w3.org/Graphics/SVG/1.1/DTD/svg11.dtd"><svg class="icon" width="200px" height="200.00px" viewBox="0 0 1024 1024" version="1.1" xmlns="http://www.w3.org/2000/svg"><path d="M828.37 300.61s-45.57 0-119.63-28.11c-79.75-28.12-128.18-59.05-128.18-59.05l-4.95-2.44c-11.15-5.5-24.34-5.14-35.16 0.96l-2.62 1.48s-51.27 30.93-128.18 59.05c-76.9 25.3-119.63 28.11-119.63 28.11l-2.61 0.2C268 302.28 253 318.27 253 337.5v353.96c0 143.4 270.59 298.05 304.78 298.05 31.33 0 304.78-154.65 304.78-298.05V337.28c-0.01-19.14-14.87-35.08-34.19-36.67z" fill="#FFD688" /><path d="M513.36 673.76h-0.08c-19.33-0.04-34.97-15.75-34.92-35.08l0.27-126.03c0.04-19.3 15.7-34.92 35-34.92h0.08c19.33 0.04 34.97 15.75 34.92 35.08l-0.27 126.03c-0.04 19.3-15.71 34.92-35 34.92z" fill="#FF8106" /><path d="M513.49 1024c-6.59 0-26.65 0-92.55-36.56-43.3-24.02-89.58-54.9-130.33-86.96-83.65-65.82-183.36-166.87-183.36-274.53V194.81c0-20.26 7.66-39.58 21.56-54.4 13.8-14.71 32.52-23.66 52.71-25.19l3.5-0.27c2.17-0.17 51.17-4.34 136.57-32.39 88.71-32.49 148.95-68.48 149.55-68.84l0.86-0.5 3.19-1.8a80.79 80.79 0 0 1 75.52-2.07l7.75 3.83 1.62 1.04c0.53 0.34 57.3 36.11 148.92 68.42l0.78 0.29c80.3 30.48 130.97 31.92 133.39 31.97l1.53-0.02 1.25 0.13c20.08 1.65 38.68 10.65 52.37 25.34 13.79 14.8 21.39 34.05 21.39 54.21v431.41c0 107.41-100.46 208.61-184.73 274.58-40.67 31.84-86.96 62.69-130.36 86.87-65.65 36.58-84.83 36.58-91.13 36.58z m-2.7-69.81zM189.9 184.78l-3.07 0.23c-5.37 0.41-9.57 4.71-9.57 9.79v431.15c0 60.59 53.4 136.78 150.37 214.53 36.74 29.46 79.1 58.32 119.28 81.24 37.17 21.22 58.67 29.6 66.32 31.81 7.66-2.36 29.08-10.98 66.1-32.23 40.37-23.17 82.79-52.07 119.44-81.36 97.35-77.8 150.97-153.8 150.97-214v-431.4c0-4.83-3.82-8.97-8.81-9.7-11.85-0.34-69.49-3.71-155.57-36.34-91.45-32.29-150.23-67.42-161.17-74.19l-4.44-2.19a10.861 10.861 0 0 0-10.14 0.27l-2.79 1.57c-6.55 3.91-69.21 40.72-161.71 74.54l-1.08 0.38c-94.57 31.11-149.51 35.57-154.13 35.9z" fill="#FEA503" /><path d="M513.49 474.5m-68.5 0a68.5 68.5 0 1 0 137 0 68.5 68.5 0 1 0-137 0Z" fill="#FF8106" /></svg>