<?xml version="1.0" encoding="utf-8"?>
<!-- Generator: Adobe Illustrator 25.3.1, SVG Export Plug-In . SVG Version: 6.00 Build 0)  -->
<svg version="1.1" id="图层_1" xmlns="http://www.w3.org/2000/svg" xmlns:xlink="http://www.w3.org/1999/xlink" x="0px" y="0px"
	 viewBox="0 0 200 200" style="enable-background:new 0 0 200 200;" xml:space="preserve">
<style type="text/css">
	.st0{fill:#EDC7C3;}
	.st1{fill:#F86E38;}
</style>
<path class="st0" d="M155.1,199.4H44.9c-24.3,0-44-19.7-44-44V45.2c0-24.3,19.7-44,44-44h110.2c24.3,0,44,19.7,44,44v110.2
	C199.1,179.7,179.4,199.4,155.1,199.4z"/>
<path class="st1" d="M148.5,54.7l-42.3-21.1c-3.7-1.9-8.4-1.9-12.1,0L51.8,54.7c-4.9,2.2-7.8,6.8-7.8,12.1v38.6
	c0,17.7,8.7,34.5,23.7,46.1c10.9,8.4,29.3,16.2,29.9,16.5c0.6,0.3,1.6,0.6,2.5,0.6c1,0,1.6-0.3,2.5-0.6c0.6-0.3,19.3-8.1,29.9-16.5
	c14.9-11.5,23.7-28.3,23.7-46.1V66.8C156,61.5,153.2,56.9,148.5,54.7z M106.2,101.7v19.9c0,3.4-2.8,6.2-6.2,6.2s-6.2-2.8-6.2-6.2
	v-19.9c-5.6-2.5-9.3-7.8-9.3-14.3c0-8.7,6.9-15.5,15.5-15.5s15.5,6.9,15.5,15.5C115.5,93.9,111.8,99.2,106.2,101.7z"/>
</svg>
