<?xml version="1.0" standalone="no"?><!DOCTYPE svg PUBLIC "-//W3C//DTD SVG 1.1//EN" "http://www.w3.org/Graphics/SVG/1.1/DTD/svg11.dtd"><svg class="icon" width="200px" height="200.00px" viewBox="0 0 1024 1024" version="1.1" xmlns="http://www.w3.org/2000/svg"><path fill="#f86e38" d="M946.176 121.824c2.848 7.68 2.848 16.128 0 23.776l-287.776 774.784a34.144 34.144 0 0 1-56.128 12.256l-176.32-176.32-121.856 113.92c-23.296 21.76-60.224 2.56-57.344-27.84l0.544-3.712 38.336-194.432c1.152-5.92 3.872-11.424 7.84-15.936l2.24-2.24-180.48-180.48a34.144 34.144 0 0 1 12.288-56.096l774.752-287.776a34.144 34.144 0 0 1 43.904 20.096z m-190.144 159.232l-418.176 314.656 45.664 49.6L756.032 281.088z"  /></svg>