<?xml version="1.0" standalone="no"?><!DOCTYPE svg PUBLIC "-//W3C//DTD SVG 1.1//EN" "http://www.w3.org/Graphics/SVG/1.1/DTD/svg11.dtd"><svg class="icon" width="200px" height="200.00px" viewBox="0 0 1024 1024" version="1.1" xmlns="http://www.w3.org/2000/svg"><path fill="#ffffff" d="M885.58 554.65c-22.86 0-41.39-18.53-41.39-41.39V182.17c0-22.86 18.53-41.39 41.39-41.39s41.39 18.53 41.39 41.39v331.09c-0.01 22.86-18.54 41.39-41.39 41.39zM140.62 885.74c-22.86 0-41.39-18.53-41.39-41.39V513.26c0-22.86 18.53-41.39 41.39-41.39s41.39 18.53 41.39 41.39v331.09c0 22.86-18.53 41.39-41.39 41.39z"  /><path fill="#ffffff" d="M513.1 927.12c-228.21 0-413.86-185.65-413.86-413.86 0-22.86 18.53-41.39 41.39-41.39s41.39 18.53 41.39 41.39c0 182.56 148.53 331.09 331.09 331.09 86.23 0 167.89-32.98 229.93-92.86 16.45-15.82 42.66-15.42 58.52 1.05 15.86 16.45 15.4 42.64-1.05 58.52-77.57 74.84-179.64 116.06-287.41 116.06zM885.6 554.65c-22.86 0-41.39-18.53-41.39-41.39 0-182.56-148.53-331.09-331.09-331.09-90.65 0-175.27 35.93-238.25 101.16-15.82 16.51-42.07 16.95-58.5 1.03-16.45-15.86-16.91-42.07-1.03-58.5C294.04 144.3 399.81 99.4 513.12 99.4c228.21 0 413.86 185.65 413.86 413.86 0 22.86-18.53 41.39-41.38 41.39z"  /></svg>