<?xml version="1.0" encoding="utf-8"?>
<!-- Generator: Adobe Illustrator 25.3.1, SVG Export Plug-In . SVG Version: 6.00 Build 0)  -->
<svg version="1.1" id="图层_1" xmlns="http://www.w3.org/2000/svg" xmlns:xlink="http://www.w3.org/1999/xlink" x="0px" y="0px"
	 viewBox="0 0 200 200" style="enable-background:new 0 0 200 200;" xml:space="preserve">
<style type="text/css">
	.st0{fill:#F86E38;}
</style>
<path class="st0" d="M51.6,185.2c-3.2,1.9-7.3,0.8-9.1-2.4c-0.8-1.4-1.1-3-0.8-4.6l9.2-53.9L12,86.1c-2.5-2.7-2.3-6.9,0.4-9.4
	c0.9-0.9,2.1-1.4,3.3-1.7l54.2-8.3l24.2-49c1.7-3.3,5.7-4.6,8.9-3c1.3,0.6,2.3,1.7,3,3l24.2,49l54.2,8.3c3.6,0.6,6.1,4,5.6,7.6
	c-0.2,1.4-0.9,2.7-1.9,3.7l-39.1,38.2l9.4,53.7c0.6,3.6-1.9,7.1-5.5,7.7c-1.4,0.2-2.9,0-4.2-0.7l-48.4-25L51.6,185.2z"/>
</svg>
