<?xml version="1.0" encoding="utf-8"?>
<!-- Generator: Adobe Illustrator 25.3.1, SVG Export Plug-In . SVG Version: 6.00 Build 0)  -->
<svg version="1.1" id="图层_1" xmlns="http://www.w3.org/2000/svg" xmlns:xlink="http://www.w3.org/1999/xlink" x="0px" y="0px"
	 viewBox="0 0 200 200" style="enable-background:new 0 0 200 200;" xml:space="preserve">
<style type="text/css">
	.st0{fill:#3689F5;}
	.st1{fill:#FFFFFF;}
</style>
<path class="st0" d="M150,200H50c-27.5,0-50-22.5-50-50V50C0,22.5,22.5,0,50,0h100c27.5,0,50,22.5,50,50v100
	C200,177.5,177.5,200,150,200z"/>
<path class="st1" d="M155.6,111l-9.8-7.6c0.2-2.3,0.2-4.6,0-6.9l9.9-7.5c2.7-2.1,3.4-5.9,1.7-8.9l-11-18.8c-1.7-3-5.3-4.3-8.6-3.1
	L126,62.9c-2-1.3-4.1-2.5-6.2-3.5l-1.8-12c-0.5-3.4-3.5-5.9-6.9-5.9H88.9c-3.5-0.1-6.4,2.4-6.9,5.8l-1.8,12.1
	c-2.2,1-4.3,2.1-6.2,3.4l-11.4-4.4c-3.2-1.3-6.8,0-8.6,2.9L42.8,80.2c-1.8,3-1,6.8,1.8,8.8l9.8,7.6c-0.1,1.1-0.1,2.3,0,3.4v3.4
	l-9.9,7.5c-2.7,2.1-3.4,5.9-1.7,8.9l11.1,18.8c1.7,2.9,5.3,4.3,8.6,3.1l11.8-4.6c2,1.3,4.1,2.5,6.2,3.4l1.8,12
	c0.5,3.5,3.5,6,6.9,5.9h22.2c3.5,0.1,6.4-2.4,6.9-5.8l1.8-12.1c2.2-1,4.3-2.1,6.2-3.4l11.7,4.6c3.2,1.2,6.8,0,8.6-2.9l11.1-18.8
	C159.6,116.8,158.6,112.9,155.6,111L155.6,111z M139.7,133.3l-14.7-5.8l-1.9,1.4c-2.6,1.9-5.5,3.6-8.5,4.8l-2.2,0.9l-2.5,15.4H90.2
	l-2.2-15.4l-2.3-0.9c-3-1.2-5.8-2.8-8.4-4.8l-1.9-1.4l-14.9,5.8l-9.8-16.6l12.5-9.6v-2.3c-0.3-1.6-0.5-3.2-0.6-4.7
	c0-1.6,0.1-3.2,0.3-4.8v-2.3l-12.5-9.6l9.8-16.6L75,72.5l1.9-1.4c2.6-2,5.5-3.6,8.5-4.8l2.2-0.9L90.2,50h19.7l2.2,15.4l2.3,0.9
	c3,1.2,5.8,2.8,8.4,4.8l1.9,1.4l14.9-5.8l9.9,16.6L137,92.9l0.3,2.3c0.5,3.2,0.5,6.4,0,9.6l-0.3,2.3l12.5,9.6L139.7,133.3z"/>
<path class="st1" d="M100,78.1c-12.1,0.1-21.8,9.9-21.7,22c0.1,12.1,9.9,21.8,22,21.7c12-0.1,21.7-9.8,21.7-21.9
	c0-12.1-9.8-21.9-21.9-21.9C100.1,78.1,100,78.1,100,78.1z M100,114c-7.7-0.1-13.9-6.4-13.9-14.1c0.1-7.7,6.4-13.9,14.1-13.9
	c7.7,0.1,13.9,6.3,13.9,14c0,7.7-6.3,14-14,14C100.1,114,100,114,100,114z"/>
</svg>
