<?xml version="1.0" encoding="utf-8"?>
<!-- Generator: Adobe Illustrator 25.3.1, SVG Export Plug-In . SVG Version: 6.00 Build 0)  -->
<svg version="1.1" id="图层_1" xmlns="http://www.w3.org/2000/svg" xmlns:xlink="http://www.w3.org/1999/xlink" x="0px" y="0px"
	 viewBox="0 0 200 198.8" style="enable-background:new 0 0 200 198.8;" xml:space="preserve">
<style type="text/css">
	.st0{fill:#9E9E9E;}
	.st1{fill:#FFFFFF;}
</style>
<path class="st0" d="M147.5,185.2h-95c-21,0-37.9-17-37.9-37.9v-95c0-21,17-37.9,37.9-37.9h95c20.9,0,37.9,17,37.9,37.9v95
	C185.4,168.2,168.4,185.2,147.5,185.2z"/>
<path class="st1" d="M134.1,45.6c7.7,0,14,6.2,14.2,13.9v29.7l-0.3,9.2c-5.1-3-10.9-4.7-16.9-4.7c-17.9,0-32.4,14.5-32.4,32.3
	c0,11.4,6.1,22.1,16.1,27.8l-15.2-0.1H62.1c-7.7,0-14-6.2-14.2-13.9V59.8c0-7.7,6.2-14,13.9-14.2H134.1z M83.7,117.9H67.6
	c-2.1,0-3.7,1.6-3.7,3.7c0,2.1,1.6,3.7,3.7,3.7h16.1c2.1,0,3.7-1.6,3.7-3.7C87.4,119.6,85.7,117.9,83.7,117.9z M94.4,91.3H67.6
	c-2.1-0.1-3.7,1.5-3.8,3.5c-0.1,2.1,1.5,3.7,3.5,3.8c0.1,0,0.2,0,0.2,0h26.9c2.1-0.1,3.6-1.8,3.5-3.8C97.9,92.9,96.4,91.3,94.4,91.3
	z M120.6,64.7H67.4c-2.1,0-3.6,1.7-3.6,3.7c0,2.1,1.7,3.6,3.7,3.6h53.2c2.1-0.1,3.6-1.8,3.5-3.9C124.1,66.2,122.6,64.7,120.6,64.7
	L120.6,64.7z"/>
<path class="st1" d="M159.5,126.2c0,15.4-12.5,27.9-27.9,27.9c-15.4,0-27.9-12.5-27.9-27.9s12.5-27.9,27.9-27.9
	C147.1,98.3,159.5,110.8,159.5,126.2z M131.6,129.2c3,3,5.9,5.9,8.9,8.9c0.8,0.8,2.1,0.8,3,0s0.8-2.1,0-3l-8.9-8.9
	c3-3,5.9-5.9,8.9-8.9c0.8-0.8,0.8-2.1,0-3c-0.8-0.8-2.1-0.8-3,0c-3,3-5.9,5.9-8.9,8.9l-8.9-8.9c-0.8-0.8-2.1-0.8-3,0
	c-0.8,0.8-0.8,2.1,0,3l8.9,8.9l-8.9,8.9c-0.8,0.8-0.8,2.1,0,3s2.1,0.8,3,0C125.8,135.1,128.7,132.2,131.6,129.2L131.6,129.2z"/>
</svg>
