<?xml version="1.0" encoding="utf-8"?>
<!-- Generator: Adobe Illustrator 25.3.1, SVG Export Plug-In . SVG Version: 6.00 Build 0)  -->
<svg version="1.1" id="图层_1" xmlns="http://www.w3.org/2000/svg" xmlns:xlink="http://www.w3.org/1999/xlink" x="0px" y="0px"
	 viewBox="0 0 200 198.8" style="enable-background:new 0 0 200 198.8;" xml:space="preserve">
<style type="text/css">
	.st0{fill:#05DB81;}
	.st1{fill:#FFFFFF;}
</style>
<path class="st0" d="M147.5,185.2h-95c-21,0-37.9-17-37.9-37.9v-95c0-21,17-37.9,37.9-37.9h95c20.9,0,37.9,17,37.9,37.9v95
	C185.4,168.2,168.4,185.2,147.5,185.2z"/>
<path class="st1" d="M133.9,46.1c7.7,0,13.9,6.1,14,13.8v29.5l-0.3,9.1c-5.1-3-10.8-4.7-16.7-4.7c-17.8,0-32.2,14.4-32.2,32
	c0,11.4,6,21.9,15.9,27.6l-15.1-0.1h-37c-7.7,0-13.9-6.1-14-13.8V60.2c0-7.7,6.1-13.9,13.8-14H133.9z M83.9,117.8h-16
	c-2,0-3.7,1.6-3.7,3.7c0,2,1.6,3.7,3.7,3.7h16c2,0,3.7-1.6,3.7-3.7C87.6,119.5,85.9,117.8,83.9,117.8z M94.6,91.4H67.9
	c-2-0.1-3.7,1.5-3.8,3.5c-0.1,2,1.5,3.7,3.5,3.8c0.1,0,0.2,0,0.2,0h26.7c2-0.1,3.6-1.8,3.5-3.8C98.1,93,96.5,91.4,94.6,91.4z
	 M120.5,65H67.8c-2,0-3.6,1.7-3.6,3.7c0,2,1.7,3.6,3.7,3.6h52.8c2-0.1,3.6-1.8,3.5-3.8C124,66.5,122.5,65,120.5,65L120.5,65z"/>
<path class="st1" d="M131.8,98.1c15.4,0,28,12.5,28,28s-12.5,28-28,28s-28-12.5-28-28C103.8,110.6,116.4,98.1,131.8,98.1z
	 M134.7,110.7c-1.6,0-2.8,1.2-2.8,2.8l0,0V127l-8.1,9.6l-0.1,0.1c-1,1.2-0.7,2.9,0.4,3.9c1.2,1,2.9,0.8,4-0.3l8.4-10
	c0.7-0.6,1-1.3,1-2.1v-14.5v-0.1C137.5,111.9,136.3,110.7,134.7,110.7L134.7,110.7z"/>
</svg>
