<?xml version="1.0" encoding="utf-8"?>
<!-- Generator: Adobe Illustrator 25.3.1, SVG Export Plug-In . SVG Version: 6.00 Build 0)  -->
<svg version="1.1" id="图层_1" xmlns="http://www.w3.org/2000/svg" xmlns:xlink="http://www.w3.org/1999/xlink" x="0px" y="0px"
	 viewBox="0 0 200 198.8" style="enable-background:new 0 0 200 198.8;" xml:space="preserve">
<style type="text/css">
	.st0{fill:#F86E38;}
	.st1{fill:#FFFFFF;}
</style>
<path class="st0" d="M150,198.9H50c-27.5,0-50-22.4-50-49.8V49.6C0,22.3,22.5-0.1,50-0.1h100c27.5,0,50,22.4,50,49.8v99.5
	C200,176.5,177.5,198.9,150,198.9z"/>
<path class="st1" d="M133.3,47.3c7.5,0,13.6,6,13.7,13.5v28.9l-0.3,8.9c-5-2.9-10.5-4.6-16.3-4.6c-17.4,0-31.5,14.1-31.5,31.3
	c0,11.1,5.9,21.4,15.5,27l-14.8-0.1H63.5c-7.5,0-13.6-6-13.7-13.5V61c0-7.5,6-13.6,13.5-13.7C63.3,47.3,133.3,47.3,133.3,47.3z
	 M84.4,117.4H68.7c-2,0-3.6,1.6-3.6,3.6s1.6,3.6,3.6,3.6h15.6c2,0,3.6-1.6,3.6-3.6S86.3,117.4,84.4,117.4z M94.8,91.6h-26
	c-2-0.1-3.6,1.5-3.7,3.4c-0.1,2,1.5,3.6,3.4,3.7c0.1,0,0.2,0,0.2,0h26.1c2-0.1,3.5-1.7,3.4-3.7C98.2,93.2,96.7,91.6,94.8,91.6z
	 M120.1,65.8H68.6c-2,0-3.5,1.7-3.5,3.6c0,2,1.7,3.5,3.6,3.5h51.6c2-0.1,3.5-1.7,3.4-3.8C123.6,67.4,122.1,65.8,120.1,65.8
	L120.1,65.8z"/>
<path class="st1" d="M145.5,118l-18.9,19c-0.2,0.2-0.3,0.2-0.5,0.3c-0.9,0.5-2,0.2-2.5-0.7l0,0l-5.7-10c-0.6-0.9-0.2-2,0.7-2.5
	c0.9-0.6,2-0.2,2.5,0.7l0,0l4.5,7.9l17.2-17.2c0.7-0.7,1.9-0.7,2.7,0C146.3,116,146.3,117.2,145.5,118L145.5,118L145.5,118z
	 M131.8,99.2c-14.9,0-26.9,12-26.9,26.9s12,26.9,26.9,26.9s26.9-12,26.9-26.9S146.7,99.2,131.8,99.2z"/>
</svg>
