<?xml version="1.0" encoding="utf-8"?>
<!-- Generator: Adobe Illustrator 25.3.1, SVG Export Plug-In . SVG Version: 6.00 Build 0)  -->
<svg version="1.1" id="图层_1" xmlns="http://www.w3.org/2000/svg" xmlns:xlink="http://www.w3.org/1999/xlink" x="0px" y="0px"
	 viewBox="0 0 200 198.8" style="enable-background:new 0 0 200 198.8;" xml:space="preserve">
<style type="text/css">
	.st0{fill:#05DB81;}
	.st1{fill:#FFFFFF;}
</style>
<path class="st0" d="M150,198.9H50c-27.5,0-50-22.4-50-49.8V49.6C0,22.3,22.5-0.1,50-0.1h100c27.5,0,50,22.4,50,49.8v99.5
	C200,176.5,177.5,198.9,150,198.9z"/>
<path class="st1" d="M133.1,47.6c7.5,0,13.5,5.9,13.6,13.4v28.7l-0.3,8.9c-5-2.9-10.5-4.6-16.2-4.6c-17.3,0-31.3,14-31.3,31.1
	c0,11.1,5.8,21.3,15.5,26.9l-14.7-0.1h-36c-7.5,0-13.5-5.9-13.6-13.4V61.3c0-7.5,5.9-13.5,13.4-13.6L133.1,47.6L133.1,47.6z
	 M84.4,117.3H68.9c-1.9,0-3.6,1.6-3.6,3.6c0,1.9,1.6,3.6,3.6,3.6h15.6c1.9,0,3.6-1.6,3.6-3.6C88,119,86.4,117.3,84.4,117.3z
	 M94.9,91.6h-26c-1.9-0.1-3.6,1.5-3.7,3.4c-0.1,1.9,1.5,3.6,3.4,3.7c0.1,0,0.2,0,0.2,0h26c1.9-0.1,3.5-1.8,3.4-3.7
	C98.3,93.2,96.7,91.6,94.9,91.6z M120.1,65.9H68.8c-1.9,0-3.5,1.7-3.5,3.6s1.7,3.5,3.6,3.5h51.4c1.9-0.1,3.5-1.8,3.4-3.7
	C123.5,67.4,122,65.9,120.1,65.9L120.1,65.9z"/>
<path class="st1" d="M131.1,98.2c15,0,27.2,12.2,27.2,27.2s-12.2,27.2-27.2,27.2s-27.2-12.2-27.2-27.2S116.1,98.2,131.1,98.2z
	 M133.9,110.4c-1.6,0-2.7,1.2-2.7,2.7l0,0v13.1l-7.9,9.3l-0.1,0.1c-1,1.2-0.7,2.8,0.4,3.8c1.2,1,2.8,0.8,3.9-0.3l8.2-9.7
	c0.7-0.6,1-1.3,1-2v-14.1v-0.1C136.6,111.6,135.4,110.4,133.9,110.4L133.9,110.4z"/>
</svg>
