<?xml version="1.0" encoding="utf-8"?>
<!-- Generator: Adobe Illustrator 25.3.1, SVG Export Plug-In . SVG Version: 6.00 Build 0)  -->
<svg version="1.1" id="图层_1" xmlns="http://www.w3.org/2000/svg" xmlns:xlink="http://www.w3.org/1999/xlink" x="0px" y="0px"
	 viewBox="0 0 200 198.8" style="enable-background:new 0 0 200 198.8;" xml:space="preserve">
<style type="text/css">
	.st0{fill:#3AA824;}
</style>
<path class="st0" d="M147.4,21.7c11.2,0,20.2,8.8,20.3,20v42.8l-0.4,13.3c-7.4-4.3-15.6-6.9-24.2-6.9c-25.9,0-46.7,20.9-46.7,46.4
	c0,16.5,8.7,31.9,23.2,40.2l-22-0.1H43.7c-11.2,0-20.2-8.8-20.3-20V42.2c0-11.2,8.8-20.2,20-20.3L147.4,21.7L147.4,21.7z
	 M74.7,125.7H51.5c-2.9,0-5.3,2.4-5.3,5.3s2.4,5.3,5.3,5.3h23.3c2.9,0,5.3-2.4,5.3-5.3C80,128.3,77.6,125.7,74.7,125.7z M90.3,87.4
	H51.5c-2.9-0.1-5.3,2.2-5.5,5.1c-0.1,2.9,2.2,5.3,5.1,5.5c0.1,0,0.3,0,0.3,0h38.8c2.9-0.1,5.2-2.7,5.1-5.5
	C95.4,89.8,93,87.4,90.3,87.4z M128,49H51.4c-2.9,0-5.2,2.6-5.2,5.3c0,2.9,2.6,5.2,5.3,5.2h76.8c2.9-0.1,5.2-2.7,5.1-5.5
	C133.1,51.3,130.8,49,128,49L128,49z"/>
<path class="st0" d="M144.4,97.2c22.4,0,40.6,18.2,40.6,40.6s-18.2,40.6-40.6,40.6s-40.6-18.2-40.6-40.6S122,97.2,144.4,97.2z
	 M148.6,115.5c-2.4,0-4,1.8-4,4l0,0v19.5l-11.8,13.9l-0.1,0.1c-1.4,1.8-1,4.2,0.6,5.7c1.8,1.4,4.2,1.2,5.8-0.4l12.2-14.5
	c1-0.9,1.4-1.9,1.4-3v-21.1v-0.1C152.6,117.3,150.8,115.5,148.6,115.5L148.6,115.5z"/>
</svg>
