<?xml version="1.0" encoding="utf-8"?>
<!-- Generator: Adobe Illustrator 25.3.1, SVG Export Plug-In . SVG Version: 6.00 Build 0)  -->
<svg version="1.1" id="图层_1" xmlns="http://www.w3.org/2000/svg" xmlns:xlink="http://www.w3.org/1999/xlink" x="0px" y="0px"
	 viewBox="0 0 200 198.8" style="enable-background:new 0 0 200 198.8;" xml:space="preserve">
<style type="text/css">
	.st0{fill:#9E9E9E;}
	.st1{fill:#FFFFFF;}
</style>
<path class="st0" d="M150,198.8H50c-27.5,0-50-22.4-50-49.8V49.5C0,22.2,22.5-0.2,50-0.2h100c27.5,0,50,22.4,50,49.8v99.5
	C200,176.4,177.5,198.8,150,198.8z"/>
<path class="st1" d="M133.2,47.3c7.5,0,13.6,6,13.8,13.5v28.8l-0.3,8.9c-4.9-2.9-10.6-4.6-16.4-4.6c-17.3,0-31.4,14-31.4,31.3
	c0,11,5.9,21.4,15.6,26.9L99.7,152H63.4c-7.5,0-13.6-6-13.8-13.5V61c0-7.5,6-13.6,13.5-13.8H133.2z M84.3,117.3H68.7
	c-2,0-3.6,1.6-3.6,3.6s1.6,3.6,3.6,3.6h15.6c2,0,3.6-1.6,3.6-3.6C87.9,119,86.3,117.3,84.3,117.3z M94.7,91.6h-26
	c-2-0.1-3.6,1.5-3.7,3.4c-0.1,2,1.5,3.6,3.4,3.7c0.1,0,0.2,0,0.2,0h26.1c2-0.1,3.5-1.7,3.4-3.7C98.1,93.1,96.6,91.6,94.7,91.6z
	 M120.1,65.8H68.5c-2,0-3.5,1.6-3.5,3.6c0,2,1.6,3.5,3.6,3.5h51.5c2-0.1,3.5-1.7,3.4-3.8C123.5,67.2,122,65.8,120.1,65.8L120.1,65.8
	z"/>
<path class="st1" d="M157.8,125.4c0,14.9-12.1,27-27,27s-27-12.1-27-27s12.1-27,27-27C145.7,98.3,157.8,110.5,157.8,125.4z
	 M130.7,128.3c2.9,2.9,5.7,5.7,8.6,8.6c0.8,0.8,2,0.8,2.9,0s0.8-2,0-2.9l-8.6-8.6c2.9-2.9,5.7-5.7,8.6-8.6c0.8-0.8,0.8-2,0-2.9
	c-0.8-0.8-2-0.8-2.9,0c-2.9,2.9-5.7,5.7-8.6,8.6l-8.6-8.6c-0.8-0.8-2-0.8-2.9,0c-0.8,0.8-0.8,2,0,2.9l8.6,8.6l-8.6,8.6
	c-0.8,0.8-0.8,2,0,2.9c0.8,0.9,2,0.8,2.9,0C125.1,134,127.9,131.2,130.7,128.3L130.7,128.3z"/>
</svg>
