<?xml version="1.0" encoding="utf-8"?>
<!-- Generator: Adobe Illustrator 25.3.1, SVG Export Plug-In . SVG Version: 6.00 Build 0)  -->
<svg version="1.1" id="图层_1" xmlns="http://www.w3.org/2000/svg" xmlns:xlink="http://www.w3.org/1999/xlink" x="0px" y="0px"
	 viewBox="0 0 200 198.8" style="enable-background:new 0 0 200 198.8;" xml:space="preserve">
<style type="text/css">
	.st0{fill:#F86E38;}
	.st1{fill:#FFFFFF;}
</style>
<path class="st0" d="M147.5,185.2h-95c-21,0-37.9-17-37.9-37.9v-95c0-21,17-37.9,37.9-37.9h95c20.9,0,37.9,17,37.9,37.9v95
	C185.4,168.2,168.4,185.2,147.5,185.2z"/>
<path class="st1" d="M134.1,45.8c7.7,0,14,6.2,14.1,13.9v29.7l-0.3,9.2c-5.1-3-10.8-4.7-16.8-4.7c-17.9,0-32.4,14.5-32.4,32.2
	c0,11.4,6.1,22,16,27.8l-15.2-0.1H62.3c-7.7,0-14-6.2-14.1-13.9V59.9c0-7.7,6.2-14,13.9-14.1H134.1z M83.8,117.9H67.7
	c-2.1,0-3.7,1.6-3.7,3.7s1.6,3.7,3.7,3.7h16.1c2.1,0,3.7-1.6,3.7-3.7S85.8,117.9,83.8,117.9z M94.5,91.3H67.7
	c-2.1-0.1-3.7,1.5-3.8,3.5c-0.1,2.1,1.5,3.7,3.5,3.8c0.1,0,0.2,0,0.2,0h26.9c2.1-0.1,3.6-1.8,3.5-3.8C98,93,96.5,91.4,94.5,91.3z
	 M120.6,64.8H67.6c-2.1,0-3.6,1.7-3.6,3.7c0,2.1,1.7,3.6,3.7,3.6h53.1c2.1-0.1,3.6-1.8,3.5-3.9C124.2,66.4,122.6,64.8,120.6,64.8
	L120.6,64.8z"/>
<path class="st1" d="M146.7,118.5l-19.5,19.6c-0.2,0.2-0.3,0.2-0.5,0.3c-0.9,0.5-2.1,0.2-2.6-0.7l0,0l-5.9-10.3
	c-0.6-0.9-0.2-2.1,0.7-2.6c0.9-0.6,2.1-0.2,2.6,0.7l0,0l4.6,8.1l17.7-17.7c0.7-0.7,2-0.7,2.8,0C147.5,116.5,147.5,117.7,146.7,118.5
	L146.7,118.5L146.7,118.5z M132.6,99.2c-15.3,0-27.7,12.4-27.7,27.7s12.4,27.7,27.7,27.7c15.3,0,27.7-12.4,27.7-27.7
	S147.9,99.2,132.6,99.2z"/>
</svg>
