<?xml version="1.0" standalone="no"?><!DOCTYPE svg PUBLIC "-//W3C//DTD SVG 1.1//EN" "http://www.w3.org/Graphics/SVG/1.1/DTD/svg11.dtd"><svg class="icon" width="200px" height="200.00px" viewBox="0 0 1024 1024" version="1.1" xmlns="http://www.w3.org/2000/svg"><path fill="#707070" d="M512 222.171429a460.8 460.8 0 0 1 334.994286 141.531428 493.714286 493.714286 0 0 1 83.382857 116.662857 68.937143 68.937143 0 0 1 0 63.268572 493.714286 493.714286 0 0 1-83.382857 116.662857A460.8 460.8 0 0 1 512 801.828571a460.8 460.8 0 0 1-334.994286-141.531428 493.714286 493.714286 0 0 1-83.382857-116.662857 68.937143 68.937143 0 0 1 0-63.268572 493.714286 493.714286 0 0 1 83.382857-116.662857A460.8 460.8 0 0 1 512 222.171429m0-73.142858a536.868571 536.868571 0 0 0-387.657143 164.571429 569.782857 569.782857 0 0 0-95.817143 134.034286 143.36 143.36 0 0 0 0 130.194285 569.782857 569.782857 0 0 0 95.817143 133.302858 540.525714 540.525714 0 0 0 775.314286 0 569.782857 569.782857 0 0 0 95.817143-134.034286 143.36 143.36 0 0 0 0-130.194286 569.782857 569.782857 0 0 0-95.817143-134.034286 536.868571 536.868571 0 0 0-387.657143-164.571428z"  /><path fill="#707070" d="M512 420.571429a91.428571 91.428571 0 1 1-91.428571 91.428571 91.428571 91.428571 0 0 1 91.428571-91.428571m0-73.142858a164.571429 164.571429 0 1 0 164.571429 164.571429 164.571429 164.571429 0 0 0-164.571429-164.571429z"  /></svg>