<?xml version="1.0" encoding="utf-8"?>
<!-- Generator: Adobe Illustrator 25.3.1, SVG Export Plug-In . SVG Version: 6.00 Build 0)  -->
<svg version="1.1" id="图层_1" xmlns="http://www.w3.org/2000/svg" xmlns:xlink="http://www.w3.org/1999/xlink" x="0px" y="0px"
	 viewBox="0 0 200 200" style="enable-background:new 0 0 200 200;" xml:space="preserve">
<style type="text/css">
	.st0{fill:#2BE4A6;}
	.st1{fill:#CAF6E1;}
	.st2{fill:#F6FDFA;}
</style>
<path class="st0" d="M150,200H50c-27.5,0-50-22.5-50-50V50C0,22.5,22.5,0,50,0h100c27.5,0,50,22.5,50,50v100
	C200,177.5,177.5,200,150,200z"/>
<path class="st1" d="M137.9,150H61.8c-4.4,0-8-3.6-8-8V58c0-4.4,3.6-8,8-8h46.6c1,0,1.9,0.4,2.7,1l33.4,31.8c0.8,0.8,1.3,1.8,1.3,3
	v56.2C145.8,146.5,142.3,150,137.9,150L137.9,150z"/>
<path class="st2" d="M125.8,132h-52c-2.2,0-4-1.8-4-4c0-2.2,1.8-4,4-4h52c2.2,0,4,1.8,4,4C129.8,130.2,128,132,125.8,132z
	 M87.7,106.2l2.9-19.4c0.1-0.8,0.5-1.5,1-2.1l32.6-32.6c3-3,7.9-2.8,11,0.3l8.5,8.5c3.1,3.1,3.2,8.1,0.3,11l-32.6,32.6
	c-0.6,0.6-1.3,0.9-2.1,1l-19.4,2.9C88.6,108.6,87.5,107.5,87.7,106.2z"/>
</svg>
