<?xml version="1.0" encoding="utf-8"?>
<!-- Generator: Adobe Illustrator 25.3.1, SVG Export Plug-In . SVG Version: 6.00 Build 0)  -->
<svg version="1.1" id="图层_1" xmlns="http://www.w3.org/2000/svg" xmlns:xlink="http://www.w3.org/1999/xlink" x="0px" y="0px"
	 viewBox="0 0 200 200" style="enable-background:new 0 0 200 200;" xml:space="preserve">
<style type="text/css">
	.st0{fill:#EC752E;}
</style>
<path class="st0" d="M185.1,76.3l-73.6-56.6c-6.7-5.2-16.1-5.2-22.9,0L14.9,76.3c-2.7,2.1-3.2,6-1.2,8.8c2.1,2.7,6,3.2,8.8,1.2
	l5.6-4.3v68c0,17.2,14,31.2,31.3,31.2H75c6.9,0,12.5-5.6,12.5-12.5V125c0-3.4,2.8-6.2,6.2-6.2h12.5c3.4,0,6.2,2.8,6.2,6.2v43.8
	c0,6.9,5.6,12.5,12.5,12.5h15.6c17.2,0,31.2-14,31.2-31.2V81.9l5.6,4.3c1.1,0.9,2.5,1.3,3.8,1.3c1.9,0,3.7-0.8,5-2.4
	C188.3,82.3,187.8,78.4,185.1,76.3L185.1,76.3z M159.4,150c0,10.3-8.4,18.8-18.8,18.8H125V125c0-10.3-8.4-18.8-18.8-18.8H93.8
	c-10.3,0-18.8,8.4-18.8,18.8v43.8H59.4c-10.3,0-18.8-8.4-18.8-18.8V72.3l55.6-42.7c2.2-1.7,5.4-1.7,7.6,0l55.6,42.7V150z"/>
<path class="st0" d="M34.1,71.9L100,22.5l66.3,49.5l-2.5,89.1c0,0-4.6,15.1-17.9,15.4c-13.3,0.4-27.4,8.8-26.7-22.4
	c0.7-31.2,3.5-37.9-19.3-38.6c-22.8-0.7-19.6,6.3-20.3,22.1C79,153.3,80.7,167,80.7,167s2.5,9.8-16.1,8.1
	C46,173.3,33,180,34.1,131.9S34.1,71.9,34.1,71.9z"/>
</svg>
